<?xml version="1.0" encoding="UTF-8" standalone="no"?>
<svg
   width="100.65581mm"
   height="76.716751mm"
   viewBox="0 0 100.65581 76.716751"
   version="1.1"
   id="svg1989"
   inkscape:version="1.2.1 (9c6d41e410, 2022-07-14)"
   sodipodi:docname="dmstag_numbering_local.svg"
   xmlns:inkscape="http://www.inkscape.org/namespaces/inkscape"
   xmlns:sodipodi="http://sodipodi.sourceforge.net/DTD/sodipodi-0.dtd"
   xmlns="http://www.w3.org/2000/svg"
   xmlns:svg="http://www.w3.org/2000/svg">
  <sodipodi:namedview
     id="namedview1991"
     pagecolor="#ffffff"
     bordercolor="#666666"
     borderopacity="1.0"
     objecttolerance="10.0"
     gridtolerance="10.0"
     guidetolerance="10.0"
     inkscape:pageshadow="2"
     inkscape:pageopacity="0.0"
     inkscape:pagecheckerboard="0"
     inkscape:document-units="mm"
     showgrid="false"
     inkscape:zoom="3.5196885"
     inkscape:cx="190.2157"
     inkscape:cy="206.69443"
     inkscape:window-width="1920"
     inkscape:window-height="1080"
     inkscape:window-x="2311"
     inkscape:window-y="87"
     inkscape:window-maximized="0"
     inkscape:current-layer="layer1"
     fit-margin-top="0"
     fit-margin-left="0"
     fit-margin-right="0"
     fit-margin-bottom="0"
     inkscape:showpageshadow="2"
     inkscape:deskcolor="#d1d1d1" />
  <defs
     id="defs1986" />
  <g
     inkscape:label="Layer 1"
     inkscape:groupmode="layer"
     id="layer1"
     transform="translate(-10.420371,-11.949291)">
    <path
       style="fill:none;stroke:#7f8385;stroke-width:0.862305;stroke-linecap:butt;stroke-linejoin:miter;stroke-miterlimit:4;stroke-dasharray:none;stroke-opacity:1"
       d="M 48.084765,11.949291 V 82.665462"
       id="path17107" />
    <path
       style="fill:none;stroke:#7f8385;stroke-width:0.862305;stroke-linecap:butt;stroke-linejoin:miter;stroke-miterlimit:4;stroke-dasharray:none;stroke-opacity:1"
       d="M 83.929662,11.949291 V 82.665462"
       id="path17109" />
    <path
       style="fill:none;stroke:#7f8385;stroke-width:0.862305;stroke-linecap:butt;stroke-linejoin:miter;stroke-miterlimit:4;stroke-dasharray:none;stroke-opacity:1"
       d="M 12.239849,11.949291 V 82.665462"
       id="path17111" />
    <path
       style="fill:none;stroke:#7f8385;stroke-width:0.708836;stroke-linecap:butt;stroke-linejoin:miter;stroke-miterlimit:4;stroke-dasharray:none;stroke-opacity:1"
       d="M 12.432646,58.812694 H 84.089462"
       id="path17115" />
    <path
       style="fill:none;stroke:#7f8385;stroke-width:0.708836;stroke-linecap:butt;stroke-linejoin:miter;stroke-miterlimit:4;stroke-dasharray:none;stroke-opacity:1"
       d="M 12.432646,35.129939 H 84.089462"
       id="path17117" />
    <path
       style="fill:none;stroke:#7f8385;stroke-width:0.708836;stroke-linecap:butt;stroke-linejoin:miter;stroke-miterlimit:4;stroke-dasharray:none;stroke-opacity:1"
       d="M 12.432646,82.495452 H 84.089462"
       id="path17123" />
    <path
       id="path17167"
       style="fill:#bc4342;stroke:#404243;stroke-width:0.44;stroke-linecap:square;stroke-linejoin:round"
       inkscape:transform-center-y="-1.2292649e-05"
       transform="matrix(0.99982839,0,0,1.0001041,42.763609,-200.21565)"
       d="m 24.903443,225.13665 -3.311684,0 0,-3.31169 3.311684,0 z" />
    <path
       id="path17169"
       style="fill:#bc4342;stroke:#404243;stroke-width:0.44;stroke-linecap:square;stroke-linejoin:round"
       inkscape:transform-center-x="-0.52932491"
       inkscape:transform-center-y="-0.0033389472"
       transform="matrix(0.99841923,0.05307849,-0.05306386,0.99869464,79.944832,-213.74761)"
       d="m 18.156945,236.39092 -3.097867,2.00122 -0.184172,-3.68344 z" />
    <path
       id="path17171"
       style="fill:#bacc33;stroke:#404243;stroke-width:0.44;stroke-linecap:square;stroke-linejoin:round"
       inkscape:transform-center-y="-1.2292649e-05"
       transform="matrix(0.99982839,0,0,1.0001041,6.9186823,-200.21565)"
       d="m 24.903443,225.13665 -3.311684,0 0,-3.31169 3.311684,0 z" />
    <path
       id="path17173"
       style="fill:#bc4342;stroke:#404243;stroke-width:0.44;stroke-linecap:square;stroke-linejoin:round"
       inkscape:transform-center-x="-0.52933293"
       inkscape:transform-center-y="-0.0033470888"
       transform="matrix(0.99841923,0.05307849,-0.05306386,0.99869464,44.099962,-213.74763)"
       d="m 18.156945,236.39092 -3.097867,2.00122 -0.184172,-3.68344 z" />
    <path
       id="path17177"
       style="fill:#bacc33;stroke:#404243;stroke-width:0.44;stroke-linecap:square;stroke-linejoin:round"
       inkscape:transform-center-x="-0.52933202"
       inkscape:transform-center-y="-0.0033452022"
       transform="matrix(0.99841923,0.05307849,-0.05306386,0.99869464,8.2550673,-213.74764)"
       d="m 18.156945,236.39092 -3.097867,2.00122 -0.184172,-3.68344 z" />
    <path
       id="circle17181"
       style="fill:#bc4342;stroke:#404243;stroke-width:0.439985;stroke-linecap:square;stroke-linejoin:round"
       d="m 85.508637,35.129807 a 1.5786748,1.5791101 0 0 1 -1.578675,1.57911 1.5786748,1.5791101 0 0 1 -1.578675,-1.57911 1.5786748,1.5791101 0 0 1 1.578675,-1.579111 1.5786748,1.5791101 0 0 1 1.578675,1.579111 z" />
    <path
       id="circle17183"
       style="fill:#bc4342;stroke:#404243;stroke-width:0.439985;stroke-linecap:square;stroke-linejoin:round"
       d="m 49.663796,35.129807 a 1.5786748,1.5791101 0 0 1 -1.578675,1.57911 1.5786748,1.5791101 0 0 1 -1.578675,-1.57911 1.5786748,1.5791101 0 0 1 1.578675,-1.579111 1.5786748,1.5791101 0 0 1 1.578675,1.579111 z" />
    <path
       id="path17185"
       style="fill:#bc4342;stroke:#404243;stroke-width:0.44;stroke-linecap:square;stroke-linejoin:round"
       inkscape:transform-center-x="-0.003089193"
       inkscape:transform-center-y="0.52969875"
       transform="matrix(-0.05283198,0.99870693,-0.99843154,-0.05284656,302.97744,31.088522)"
       d="m 18.156945,236.39092 -3.097867,2.00122 -0.184172,-3.68344 z" />
    <path
       id="circle17187"
       style="fill:#bacc33;stroke:#404243;stroke-width:0.439985;stroke-linecap:square;stroke-linejoin:round"
       d="m 13.818862,35.129807 a 1.5786748,1.5791101 0 0 1 -1.578674,1.57911 1.5786748,1.5791101 0 0 1 -1.578675,-1.57911 1.5786748,1.5791101 0 0 1 1.578675,-1.579111 1.5786748,1.5791101 0 0 1 1.578674,1.579111 z" />
    <path
       id="path17189"
       style="fill:#bacc33;stroke:#404243;stroke-width:0.44;stroke-linecap:square;stroke-linejoin:round"
       inkscape:transform-center-x="-0.0030923664"
       inkscape:transform-center-y="0.52970264"
       transform="matrix(-0.05283198,0.99870693,-0.99843154,-0.05284656,267.13256,31.088502)"
       d="m 18.156945,236.39092 -3.097867,2.00122 -0.184172,-3.68344 z" />
    <path
       id="path17195"
       style="fill:#6ca39e;fill-opacity:0.988235;stroke:#404243;stroke-width:0.44;stroke-linecap:square;stroke-linejoin:round"
       inkscape:transform-center-y="-1.1464072e-05"
       transform="matrix(0.99982839,0,0,1.0001041,42.763609,-176.53285)"
       d="m 24.903443,225.13665 -3.311684,0 0,-3.31169 3.311684,0 z" />
    <path
       id="path17197"
       style="fill:#6ca39e;fill-opacity:0.988235;stroke:#404243;stroke-width:0.44;stroke-linecap:square;stroke-linejoin:round"
       inkscape:transform-center-x="-0.52933217"
       inkscape:transform-center-y="-0.0033430429"
       transform="matrix(0.99841923,0.05307849,-0.05306386,0.99869464,79.944842,-190.06484)"
       d="m 18.156945,236.39092 -3.097867,2.00122 -0.184172,-3.68344 z" />
    <path
       id="path17199"
       style="fill:#305e89;stroke:#404243;stroke-width:0.44;stroke-linecap:square;stroke-linejoin:round"
       inkscape:transform-center-y="-1.1464072e-05"
       transform="matrix(0.99982839,0,0,1.0001041,6.9186823,-176.53285)"
       d="m 24.903443,225.13665 -3.311684,0 0,-3.31169 3.311684,0 z" />
    <path
       id="path17201"
       style="fill:#6ca39e;fill-opacity:0.988235;stroke:#404243;stroke-width:0.44;stroke-linecap:square;stroke-linejoin:round"
       inkscape:transform-center-x="-0.52933248"
       inkscape:transform-center-y="-0.0033428002"
       transform="matrix(0.99841923,0.05307849,-0.05306386,0.99869464,44.099964,-190.06485)"
       d="m 18.156945,236.39092 -3.097867,2.00122 -0.184172,-3.68344 z" />
    <path
       id="path17205"
       style="fill:#305e89;stroke:#404243;stroke-width:0.44;stroke-linecap:square;stroke-linejoin:round"
       inkscape:transform-center-x="-0.52933206"
       inkscape:transform-center-y="-0.0033431731"
       transform="matrix(0.99841923,0.05307849,-0.05306386,0.99869464,8.2550703,-190.06484)"
       d="m 18.156945,236.39092 -3.097867,2.00122 -0.184172,-3.68344 z" />
    <path
       id="circle17209"
       style="fill:#6ca39e;fill-opacity:0.988235;stroke:#404243;stroke-width:0.439985;stroke-linecap:square;stroke-linejoin:round"
       d="m 85.508637,58.812542 a 1.5786748,1.5791101 0 0 1 -1.578675,1.57911 1.5786748,1.5791101 0 0 1 -1.578675,-1.57911 1.5786748,1.5791101 0 0 1 1.578675,-1.57911 1.5786748,1.5791101 0 0 1 1.578675,1.57911 z" />
    <path
       id="circle17211"
       style="fill:#6ca39e;fill-opacity:0.988235;stroke:#404243;stroke-width:0.439985;stroke-linecap:square;stroke-linejoin:round"
       d="m 49.663796,58.812542 a 1.5786748,1.5791101 0 0 1 -1.578675,1.57911 1.5786748,1.5791101 0 0 1 -1.578675,-1.57911 1.5786748,1.5791101 0 0 1 1.578675,-1.57911 1.5786748,1.5791101 0 0 1 1.578675,1.57911 z" />
    <path
       id="path17213"
       style="fill:#6ca39e;fill-opacity:0.988235;stroke:#404243;stroke-width:0.44;stroke-linecap:square;stroke-linejoin:round"
       inkscape:transform-center-x="-0.0030957228"
       inkscape:transform-center-y="0.52969535"
       transform="matrix(-0.05283198,0.99870693,-0.99843154,-0.05284656,302.97746,54.771277)"
       d="m 18.156945,236.39092 -3.097867,2.00122 -0.184172,-3.68344 z" />
    <path
       id="circle17215"
       style="fill:#305e89;stroke:#404243;stroke-width:0.439985;stroke-linecap:square;stroke-linejoin:round"
       d="m 13.818862,58.812542 a 1.5786748,1.5791101 0 0 1 -1.578674,1.57911 1.5786748,1.5791101 0 0 1 -1.578675,-1.57911 1.5786748,1.5791101 0 0 1 1.578675,-1.57911 1.5786748,1.5791101 0 0 1 1.578674,1.57911 z" />
    <path
       id="path17217"
       style="fill:#305e89;stroke:#404243;stroke-width:0.44;stroke-linecap:square;stroke-linejoin:round"
       inkscape:transform-center-x="-0.0030988962"
       inkscape:transform-center-y="0.52969925"
       transform="matrix(-0.05283198,0.99870693,-0.99843154,-0.05284656,267.13258,54.771257)"
       d="m 18.156945,236.39092 -3.097867,2.00122 -0.184172,-3.68344 z" />
    <path
       id="path17223"
       style="fill:#6ca39e;fill-opacity:0.988235;stroke:#404243;stroke-width:0.44;stroke-linecap:square;stroke-linejoin:round"
       inkscape:transform-center-y="-1.1632579e-05"
       transform="matrix(0.99982839,0,0,1.0001041,42.763609,-152.85007)"
       d="m 24.903443,225.13665 -3.311684,0 0,-3.31169 3.311684,0 z" />
    <path
       id="path17225"
       style="fill:#6ca39e;fill-opacity:0.988235;stroke:#404243;stroke-width:0.44;stroke-linecap:square;stroke-linejoin:round"
       inkscape:transform-center-x="-0.52932545"
       inkscape:transform-center-y="-0.0033435368"
       transform="matrix(0.99841923,0.05307849,-0.05306386,0.99869464,79.944832,-166.38204)"
       d="m 18.156945,236.39092 -3.097867,2.00122 -0.184172,-3.68344 z" />
    <path
       id="path17227"
       style="fill:#305e89;stroke:#404243;stroke-width:0.44;stroke-linecap:square;stroke-linejoin:round"
       inkscape:transform-center-y="-1.1632579e-05"
       transform="matrix(0.99982839,0,0,1.0001041,6.9186823,-152.85007)"
       d="m 24.903443,225.13665 -3.311684,0 0,-3.31169 3.311684,0 z" />
    <path
       id="path17229"
       style="fill:#6ca39e;fill-opacity:0.988235;stroke:#404243;stroke-width:0.44;stroke-linecap:square;stroke-linejoin:round"
       inkscape:transform-center-x="-0.52933318"
       inkscape:transform-center-y="-0.0033432177"
       transform="matrix(0.99841923,0.05307849,-0.05306386,0.99869464,44.099961,-166.38203)"
       d="m 18.156945,236.39092 -3.097867,2.00122 -0.184172,-3.68344 z" />
    <path
       id="path17233"
       style="fill:#305e89;stroke:#404243;stroke-width:0.44;stroke-linecap:square;stroke-linejoin:round"
       inkscape:transform-center-x="-0.52933247"
       inkscape:transform-center-y="-0.003342975"
       transform="matrix(0.99841923,0.05307849,-0.05306386,0.99869464,8.2550673,-166.38203)"
       d="m 18.156945,236.39092 -3.097867,2.00122 -0.184172,-3.68344 z" />
    <path
       id="circle17237"
       style="fill:#6ca39e;fill-opacity:0.988235;stroke:#404243;stroke-width:0.439985;stroke-linecap:square;stroke-linejoin:round"
       d="m 85.508637,82.4953 a 1.5786748,1.5791101 0 0 1 -1.578675,1.57911 1.5786748,1.5791101 0 0 1 -1.578675,-1.57911 1.5786748,1.5791101 0 0 1 1.578675,-1.57911 1.5786748,1.5791101 0 0 1 1.578675,1.57911 z" />
    <path
       id="circle17239"
       style="fill:#6ca39e;fill-opacity:0.988235;stroke:#404243;stroke-width:0.439985;stroke-linecap:square;stroke-linejoin:round"
       d="m 49.663796,82.4953 a 1.5786748,1.5791101 0 0 1 -1.578675,1.57911 1.5786748,1.5791101 0 0 1 -1.578675,-1.57911 1.5786748,1.5791101 0 0 1 1.578675,-1.57911 1.5786748,1.5791101 0 0 1 1.578675,1.57911 z" />
    <path
       id="path17241"
       style="fill:#6ca39e;fill-opacity:0.988235;stroke:#404243;stroke-width:0.44;stroke-linecap:square;stroke-linejoin:round"
       inkscape:transform-center-x="-0.0030885523"
       inkscape:transform-center-y="0.52969548"
       transform="matrix(-0.05283198,0.99870693,-0.99843154,-0.05284656,302.97747,78.454015)"
       d="m 18.156945,236.39092 -3.097867,2.00122 -0.184172,-3.68344 z" />
    <path
       id="circle17243"
       style="fill:#305e89;stroke:#404243;stroke-width:0.439985;stroke-linecap:square;stroke-linejoin:round"
       d="m 13.818862,82.4953 a 1.5786748,1.5791101 0 0 1 -1.578674,1.57911 1.5786748,1.5791101 0 0 1 -1.578675,-1.57911 1.5786748,1.5791101 0 0 1 1.578675,-1.57911 1.5786748,1.5791101 0 0 1 1.578674,1.57911 z" />
    <path
       id="path17245"
       style="fill:#305e89;stroke:#404243;stroke-width:0.44;stroke-linecap:square;stroke-linejoin:round"
       inkscape:transform-center-x="-0.0030927794"
       inkscape:transform-center-y="0.52969043"
       transform="matrix(-0.05283198,0.99870693,-0.99843154,-0.05284656,267.13255,78.454025)"
       d="m 18.156945,236.39092 -3.097867,2.00122 -0.184172,-3.68344 z" />
    <path
       id="path17271"
       style="fill:#bec4c7;stroke:#404243;stroke-width:0.44;stroke-linecap:square;stroke-linejoin:round"
       inkscape:transform-center-x="1.2710654e-06"
       inkscape:transform-center-y="-1.2292649e-05"
       transform="matrix(0.99982839,0,0,1.0001041,79.269932,-200.21565)"
       d="m 24.903443,225.13665 -3.311684,0 0,-3.31169 3.311684,0 z" />
    <path
       id="path17273"
       style="fill:#bec4c7;stroke:#404243;stroke-width:0.44;stroke-linecap:square;stroke-linejoin:round"
       inkscape:transform-center-x="-0.0030936275"
       inkscape:transform-center-y="0.52969551"
       transform="matrix(-0.05283198,0.99870693,-0.99843154,-0.05284656,339.48347,31.088532)"
       d="m 18.156945,236.39092 -3.097867,2.00122 -0.184172,-3.68344 z" />
    <path
       id="path17275"
       style="fill:#bec4c7;stroke:#404243;stroke-width:0.44;stroke-linecap:square;stroke-linejoin:round"
       inkscape:transform-center-x="1.2710654e-06"
       inkscape:transform-center-y="-1.1464072e-05"
       transform="matrix(0.99982839,0,0,1.0001041,79.269932,-176.53285)"
       d="m 24.903443,225.13665 -3.311684,0 0,-3.31169 3.311684,0 z" />
    <path
       id="path17277"
       style="fill:#bec4c7;stroke:#404243;stroke-width:0.44;stroke-linecap:square;stroke-linejoin:round"
       inkscape:transform-center-x="-0.0030901573"
       inkscape:transform-center-y="0.52970213"
       transform="matrix(-0.05283198,0.99870693,-0.99843154,-0.05284656,339.48348,54.771297)"
       d="m 18.156945,236.39092 -3.097867,2.00122 -0.184172,-3.68344 z" />
    <path
       id="path17279"
       style="fill:#bec4c7;stroke:#404243;stroke-width:0.44;stroke-linecap:square;stroke-linejoin:round"
       inkscape:transform-center-x="1.2710654e-06"
       inkscape:transform-center-y="-1.1632579e-05"
       transform="matrix(0.99982839,0,0,1.0001041,79.269932,-152.85007)"
       d="m 24.903443,225.13665 -3.311684,0 0,-3.31169 3.311684,0 z" />
    <path
       id="path17281"
       style="fill:#bec4c7;stroke:#404243;stroke-width:0.44;stroke-linecap:square;stroke-linejoin:round"
       inkscape:transform-center-x="-0.0030961448"
       inkscape:transform-center-y="0.52968924"
       transform="matrix(-0.05283198,0.99870693,-0.99843154,-0.05284656,339.4835,78.454025)"
       d="m 18.156945,236.39092 -3.097867,2.00122 -0.184172,-3.68344 z" />
    <g
       id="text2591"
       style="font-size:10.5833px;line-height:1.25;stroke-width:0.264583" />
    <g
       aria-label="0"
       id="text6037"
       style="font-size:4.23333px;line-height:1.25;font-family:Lexend;-inkscape-font-specification:'Lexend, Normal';font-variant-ligatures:none;stroke-width:0.264583">
      <path
         d="m 16.421874,88.666044 q -0.338666,0 -0.584199,-0.186267 -0.2413,-0.186266 -0.372533,-0.524932 -0.131233,-0.3429 -0.131233,-0.8128 0,-0.469899 0.131233,-0.808566 0.131233,-0.342899 0.372533,-0.529166 0.245533,-0.186267 0.584199,-0.186267 0.338667,0 0.5842,0.186267 0.245533,0.186267 0.376766,0.529166 0.131233,0.338667 0.131233,0.808566 0,0.4699 -0.131233,0.8128 -0.131233,0.338666 -0.376766,0.524932 -0.245533,0.186267 -0.5842,0.186267 z m 0,-0.414866 q 0.309033,0 0.478367,-0.287867 0.169333,-0.2921 0.169333,-0.821266 0,-0.529166 -0.169333,-0.817032 -0.169334,-0.2921 -0.478367,-0.2921 -0.309033,0 -0.478366,0.2921 -0.169333,0.287866 -0.169333,0.817032 0,0.529166 0.169333,0.821266 0.169333,0.287867 0.478366,0.287867 z"
         id="path12954" />
    </g>
    <g
       aria-label="1"
       id="text6385"
       style="font-size:4.23333px;line-height:1.25;font-family:Lexend;-inkscape-font-specification:'Lexend, Normal';font-variant-ligatures:none;stroke-width:0.264583">
      <path
         d="m 32.991139,88.416277 v -2.404531 l 0.156633,0.118533 -0.5842,0.309033 -0.122766,-0.397933 0.791632,-0.423333 h 0.220133 v 2.798231 z m -0.4699,0.207434 v -0.440267 h 1.413932 v 0.440267 z"
         id="path12951" />
    </g>
    <g
       aria-label="4"
       id="text6491"
       style="font-size:4.23333px;line-height:1.25;font-family:Lexend;-inkscape-font-specification:'Lexend, Normal';font-variant-ligatures:none;stroke-width:0.264583">
      <path
         d="m 51.554311,88.094543 v -2.387598 l 0.105833,0.0254 -0.973666,1.189566 -0.01693,-0.0508 h 1.841498 v 0.4191 h -2.125131 l -0.194734,-0.381 1.452032,-1.777998 h 0.351367 v 2.96333 z"
         id="path12948" />
    </g>
    <g
       aria-label="5"
       id="text6597"
       style="font-size:4.23333px;line-height:1.25;font-family:Lexend;-inkscape-font-specification:'Lexend, Normal';font-variant-ligatures:none;stroke-width:0.264583">
      <path
         d="m 69.143813,87.59501 q -0.2921,0 -0.529166,-0.131234 -0.237067,-0.135466 -0.3937,-0.385233 l 0.254,-0.283633 q 0.198966,0.220133 0.347133,0.300567 0.148166,0.08043 0.321733,0.08043 0.173566,0 0.313266,-0.0762 0.1397,-0.0762 0.220133,-0.207433 0.08467,-0.131233 0.08467,-0.2921 0,-0.169333 -0.08043,-0.300566 -0.0762,-0.135467 -0.207433,-0.211667 -0.131234,-0.08043 -0.296333,-0.08043 -0.08043,0 -0.1524,0.0127 -0.07197,0.0085 -0.173567,0.04657 -0.1016,0.0381 -0.2667,0.118533 l -0.241299,-0.325967 0.173566,-1.257299 h 1.600199 v 0.423333 h -1.312332 l 0.0889,-0.08043 -0.139699,0.939799 -0.105834,-0.122766 q 0.04233,-0.04233 0.143934,-0.08043 0.101599,-0.04233 0.224366,-0.06773 0.127,-0.02963 0.2413,-0.02963 0.270933,0 0.482599,0.127 0.2159,0.122766 0.338667,0.3429 0.127,0.220133 0.127,0.503766 0,0.2921 -0.1397,0.529166 -0.1397,0.232833 -0.381,0.372533 -0.2413,0.135467 -0.541866,0.135467 z"
         id="path12945" />
    </g>
    <g
       aria-label="8"
       id="text6703"
       style="font-size:4.23333px;line-height:1.25;font-family:Lexend;-inkscape-font-specification:'Lexend, Normal';font-variant-ligatures:none;stroke-width:0.264583">
      <path
         d="m 87.800108,87.578076 q -0.275167,0 -0.503767,-0.1143 -0.224366,-0.118533 -0.359833,-0.313266 -0.135466,-0.194733 -0.135466,-0.4318 0,-0.131233 0.03387,-0.245533 0.0381,-0.118533 0.110066,-0.2159 0.0762,-0.09737 0.182033,-0.177799 0.105834,-0.08043 0.245533,-0.143934 l -0.0254,0.0889 q -0.110066,-0.04233 -0.198966,-0.1016 -0.08467,-0.0635 -0.148167,-0.143933 -0.0635,-0.08043 -0.09737,-0.173566 -0.02963,-0.09313 -0.02963,-0.194734 0,-0.224366 0.122767,-0.406399 0.127,-0.182033 0.334433,-0.2921 0.211667,-0.110067 0.4699,-0.110067 0.258233,0 0.465666,0.110067 0.211666,0.110067 0.334433,0.2921 0.127,0.182033 0.127,0.406399 0,0.1016 -0.03387,0.194734 -0.02963,0.09313 -0.0889,0.169333 -0.05927,0.0762 -0.152399,0.1397 -0.0889,0.0635 -0.2032,0.110066 l -0.0127,-0.07197 q 0.127,0.0508 0.228599,0.131233 0.105834,0.08043 0.182034,0.182033 0.0762,0.1016 0.1143,0.2159 0.04233,0.1143 0.04233,0.237066 0,0.2413 -0.135467,0.436033 -0.135466,0.194733 -0.364066,0.309033 -0.224367,0.1143 -0.503766,0.1143 z m 0,-0.423333 q 0.156633,0 0.279399,-0.05927 0.127,-0.05927 0.198967,-0.160867 0.07197,-0.1016 0.07197,-0.232833 0,-0.1397 -0.07197,-0.245533 -0.07197,-0.110067 -0.198967,-0.173567 -0.122766,-0.0635 -0.279399,-0.0635 -0.156633,0 -0.2794,0.0635 -0.122767,0.0635 -0.194733,0.173567 -0.07197,0.105833 -0.07197,0.245533 0,0.127 0.07197,0.2286 0.07197,0.1016 0.194733,0.1651 0.122767,0.05927 0.2794,0.05927 z m 0,-1.341965 q 0.135466,0 0.2413,-0.0508 0.110066,-0.0508 0.169333,-0.135467 0.0635,-0.0889 0.0635,-0.2032 0,-0.114299 -0.0635,-0.203199 -0.05927,-0.0889 -0.169333,-0.1397 -0.105834,-0.05503 -0.2413,-0.05503 -0.135467,0 -0.245533,0.05503 -0.105834,0.0508 -0.169334,0.1397 -0.05927,0.0889 -0.05927,0.203199 0,0.1143 0.05927,0.2032 0.0635,0.08467 0.169334,0.135467 0.110066,0.0508 0.245533,0.0508 z"
         id="path12942" />
    </g>
    <g
       aria-label="9"
       id="text6809"
       style="font-size:4.23333px;line-height:1.25;font-family:Lexend;-inkscape-font-specification:'Lexend, Normal';font-variant-ligatures:none;stroke-width:0.264583">
      <path
         d="m 106.59185,87.565376 -0.0169,-0.04233 0.88054,-1.871132 0.0127,0.351367 q -0.0762,0.126999 -0.16934,0.224366 -0.0889,0.09737 -0.19896,0.169333 -0.10584,0.06773 -0.22014,0.105834 -0.1143,0.03387 -0.23283,0.03387 -0.2413,0 -0.4445,-0.127 -0.2032,-0.127 -0.32597,-0.338666 -0.12276,-0.211667 -0.12276,-0.461433 0,-0.300566 0.13546,-0.537633 0.13547,-0.2413 0.3683,-0.381 0.23707,-0.1397 0.52917,-0.1397 0.21167,0 0.39793,0.0762 0.18627,0.0762 0.32597,0.2159 0.1397,0.135467 0.22013,0.3175 0.0804,0.1778 0.0804,0.381 0,0.105833 -0.0212,0.228599 -0.0212,0.118534 -0.072,0.270934 -0.0466,0.148166 -0.127,0.342899 -0.0804,0.1905 -0.19896,0.4445 l -0.35137,0.736599 z m 0.1524,-1.452032 q 0.1651,0 0.29633,-0.07197 0.13123,-0.0762 0.2032,-0.198967 0.0762,-0.127 0.0762,-0.283633 0,-0.1651 -0.072,-0.296333 -0.072,-0.135467 -0.2032,-0.211667 -0.127,-0.0762 -0.2921,-0.0762 -0.1524,0 -0.27093,0.0762 -0.11853,0.07197 -0.1905,0.2032 -0.0677,0.127 -0.0677,0.300567 0,0.148166 0.0677,0.275166 0.072,0.127 0.1905,0.207433 0.11853,0.0762 0.26247,0.0762 z"
         id="path12939" />
    </g>
    <g
       aria-label="12"
       id="text6915"
       style="font-size:4.23333px;line-height:1.25;font-family:Lexend;-inkscape-font-specification:'Lexend, Normal';font-variant-ligatures:none;stroke-width:0.264583">
      <path
         d="m 16.057808,64.074587 v -2.404531 l 0.156633,0.118533 -0.584199,0.309033 -0.122767,-0.397933 0.791633,-0.423333 h 0.220133 v 2.798231 z m -0.4699,0.207434 v -0.440267 h 1.413933 v 0.440267 z"
         id="path12934" />
      <path
         d="m 17.64954,64.282021 -0.1397,-0.347133 0.905933,-1.020233 q 0.07197,-0.0762 0.148166,-0.173566 0.08043,-0.1016 0.1524,-0.207434 0.07197,-0.105833 0.1143,-0.207433 0.04657,-0.105833 0.04657,-0.198966 0,-0.135467 -0.05503,-0.2286 -0.0508,-0.09737 -0.1524,-0.148167 -0.09737,-0.0508 -0.237066,-0.0508 -0.122767,0 -0.2413,0.07197 -0.118533,0.07197 -0.2159,0.2032 -0.09737,0.131233 -0.1524,0.3048 L 17.47174,62.059522 q 0.07197,-0.245533 0.2159,-0.419099 0.148166,-0.1778 0.351366,-0.270933 0.207433,-0.09313 0.448733,-0.09313 0.249767,0 0.4445,0.105834 0.194733,0.1016 0.3048,0.287866 0.110066,0.182033 0.110066,0.423333 0,0.09737 -0.02117,0.198967 -0.02117,0.101599 -0.06773,0.211666 -0.04657,0.105833 -0.118533,0.224367 -0.07197,0.114299 -0.173566,0.241299 -0.09737,0.127 -0.224367,0.2667 l -0.673099,0.732366 -0.08467,-0.127 h 1.456265 v 0.440267 z"
         id="path12936" />
    </g>
    <g
       aria-label="13"
       id="text7111"
       style="font-size:4.23333px;line-height:1.25;font-family:Lexend;-inkscape-font-specification:'Lexend, Normal';font-variant-ligatures:none;stroke-width:0.264583">
      <path
         d="m 34.049465,64.074587 v -2.404531 l 0.156633,0.118533 -0.584199,0.309033 -0.122767,-0.397933 0.791633,-0.423333 h 0.220133 v 2.798231 z m -0.469899,0.207434 v -0.440267 h 1.413932 v 0.440267 z"
         id="path12929" />
      <path
         d="m 36.310063,64.324354 q -0.313266,0 -0.546099,-0.143933 -0.2286,-0.143934 -0.4318,-0.4826 l 0.3556,-0.224366 q 0.105833,0.156633 0.207433,0.258233 0.105833,0.09737 0.2159,0.143933 0.110066,0.04657 0.232833,0.04657 0.148167,0 0.275166,-0.07197 0.127,-0.0762 0.2032,-0.207433 0.0762,-0.131233 0.0762,-0.296333 0,-0.1651 -0.05927,-0.2794 -0.05927,-0.118533 -0.173567,-0.1778 -0.1143,-0.0635 -0.270933,-0.0635 -0.07197,0 -0.1524,0.01693 -0.0762,0.0127 -0.1651,0.04233 -0.0889,0.0254 -0.194733,0.06773 l -0.127,-0.334433 0.914399,-1.007533 0.0889,0.131234 H 35.497264 V 61.31869 h 1.697565 l 0.08467,0.169333 -0.969433,1.075266 -0.105833,-0.110067 q 0.03387,-0.01693 0.110067,-0.02963 0.08043,-0.01693 0.131233,-0.01693 0.186266,0 0.347133,0.07197 0.1651,0.06773 0.283633,0.194733 0.122767,0.122767 0.1905,0.2921 0.07197,0.1651 0.07197,0.3556 0,0.287866 -0.139699,0.516466 -0.135467,0.224366 -0.3683,0.3556 -0.232833,0.131233 -0.5207,0.131233 z"
         id="path12931" />
    </g>
    <g
       aria-label="16"
       id="text7217"
       style="font-size:4.23333px;line-height:1.25;font-family:Lexend;-inkscape-font-specification:'Lexend, Normal';font-variant-ligatures:none;stroke-width:0.264583">
      <path
         d="m 52.041134,64.074587 v -2.404531 l 0.156633,0.118533 -0.584199,0.309033 -0.122767,-0.397933 0.791633,-0.423333 h 0.220133 v 2.798231 z m -0.4699,0.207434 v -0.440267 h 1.413932 v 0.440267 z"
         id="path12924" />
      <path
         d="m 54.437199,64.282021 q -0.220134,0 -0.410633,-0.0762 -0.186267,-0.08043 -0.325967,-0.220134 -0.135466,-0.139699 -0.2159,-0.330199 -0.0762,-0.1905 -0.0762,-0.4191 0,-0.1143 0.02963,-0.254 0.03387,-0.143933 0.09737,-0.313266 0.06773,-0.169333 0.160867,-0.3556 0.09313,-0.1905 0.2159,-0.393699 l 0.385233,-0.651933 h 0.444499 l 0.01693,0.04233 -0.465667,0.783166 q -0.127,0.2159 -0.228599,0.410633 -0.09737,0.194733 -0.1651,0.3683 -0.06773,0.169333 -0.1016,0.309033 l -0.1016,-0.436033 q 0.08043,-0.131233 0.173566,-0.2286 0.09313,-0.1016 0.198967,-0.169333 0.110066,-0.06773 0.2286,-0.1016 0.118533,-0.03387 0.245533,-0.03387 0.245533,0 0.448733,0.135467 0.207433,0.131233 0.3302,0.351366 0.126999,0.220133 0.126999,0.4826 0,0.3175 -0.131233,0.567266 -0.127,0.245533 -0.3556,0.389466 -0.228599,0.143934 -0.524932,0.143934 z m 0,-0.423333 q 0.165099,0 0.292099,-0.0762 0.131234,-0.08043 0.2032,-0.220133 0.0762,-0.143934 0.0762,-0.325967 0,-0.156633 -0.0762,-0.2921 -0.0762,-0.1397 -0.2032,-0.224366 -0.127,-0.08467 -0.283633,-0.08467 -0.173566,0 -0.309033,0.08043 -0.135466,0.08043 -0.211666,0.215899 -0.0762,0.135467 -0.0762,0.300567 0,0.1778 0.0762,0.321733 0.0762,0.1397 0.207433,0.224366 0.131233,0.08043 0.3048,0.08043 z"
         id="path12926" />
    </g>
    <g
       aria-label="17"
       id="text7323"
       style="font-size:4.23333px;line-height:1.25;font-family:Lexend;-inkscape-font-specification:'Lexend, Normal';font-variant-ligatures:none;stroke-width:0.264583">
      <path
         d="m 69.503632,64.074587 v -2.404531 l 0.156633,0.118533 -0.5842,0.309033 -0.122766,-0.397933 0.791632,-0.423333 h 0.220134 v 2.798231 z m -0.4699,0.207434 v -0.440267 h 1.413932 v 0.440267 z"
         id="path12919" />
      <path
         d="m 71.175797,64.282021 1.227666,-2.675465 0.0508,0.135467 H 70.955664 V 61.31869 h 1.833032 l 0.05927,0.292099 -1.181099,2.671232 z"
         id="path12921" />
    </g>
    <g
       aria-label="20"
       id="text7429"
       style="font-size:4.23333px;line-height:1.25;font-family:Lexend;-inkscape-font-specification:'Lexend, Normal';font-variant-ligatures:none;stroke-width:0.264583">
      <path
         d="m 87.499527,64.811188 -0.1397,-0.347133 0.905933,-1.020233 q 0.07197,-0.0762 0.148166,-0.173566 0.08043,-0.1016 0.1524,-0.207433 0.07197,-0.105834 0.1143,-0.207434 0.04657,-0.105833 0.04657,-0.198966 0,-0.135467 -0.05503,-0.2286 -0.0508,-0.09737 -0.1524,-0.148166 -0.09737,-0.0508 -0.237066,-0.0508 -0.122767,0 -0.2413,0.07197 -0.118533,0.07197 -0.2159,0.2032 -0.09737,0.131233 -0.152399,0.3048 L 87.321727,62.58869 q 0.07197,-0.245534 0.2159,-0.4191 0.148167,-0.1778 0.351366,-0.270933 0.207433,-0.09313 0.448733,-0.09313 0.249767,0 0.4445,0.105833 0.194733,0.1016 0.3048,0.287866 0.110066,0.182033 0.110066,0.423333 0,0.09737 -0.02117,0.198967 -0.02117,0.1016 -0.06773,0.211666 -0.04657,0.105833 -0.118533,0.224367 -0.07197,0.1143 -0.173566,0.2413 -0.09737,0.126999 -0.224367,0.266699 l -0.673099,0.732366 -0.08467,-0.127 h 1.456265 v 0.440267 z"
         id="path12914" />
      <path
         d="m 90.711897,64.853521 q -0.338667,0 -0.5842,-0.186266 -0.2413,-0.186267 -0.372533,-0.524933 -0.131233,-0.3429 -0.131233,-0.8128 0,-0.469899 0.131233,-0.808566 0.131233,-0.342899 0.372533,-0.529166 0.245533,-0.186266 0.5842,-0.186266 0.338666,0 0.584199,0.186266 0.245533,0.186267 0.376767,0.529166 0.131233,0.338667 0.131233,0.808566 0,0.4699 -0.131233,0.8128 -0.131234,0.338666 -0.376767,0.524933 -0.245533,0.186266 -0.584199,0.186266 z m 0,-0.414866 q 0.309033,0 0.478366,-0.287867 0.169333,-0.292099 0.169333,-0.821266 0,-0.529166 -0.169333,-0.817032 -0.169333,-0.2921 -0.478366,-0.2921 -0.309033,0 -0.478367,0.2921 -0.169333,0.287866 -0.169333,0.817032 0,0.529167 0.169333,0.821266 0.169334,0.287867 0.478367,0.287867 z"
         id="path12916" />
    </g>
    <g
       aria-label="21"
       id="text7535"
       style="font-size:4.23333px;line-height:1.25;font-family:Lexend;-inkscape-font-specification:'Lexend, Normal';font-variant-ligatures:none;stroke-width:0.264583">
      <path
         d="m 106.5495,64.811188 -0.1397,-0.347133 0.90593,-1.020233 q 0.072,-0.0762 0.14817,-0.173566 0.0804,-0.1016 0.1524,-0.207433 0.072,-0.105834 0.1143,-0.207434 0.0466,-0.105833 0.0466,-0.198966 0,-0.135467 -0.055,-0.2286 -0.0508,-0.09737 -0.1524,-0.148166 -0.0974,-0.0508 -0.23706,-0.0508 -0.12277,0 -0.2413,0.07197 -0.11854,0.07197 -0.2159,0.2032 -0.0974,0.131233 -0.1524,0.3048 L 106.3717,62.58869 q 0.072,-0.245534 0.2159,-0.4191 0.14817,-0.1778 0.35137,-0.270933 0.20743,-0.09313 0.44873,-0.09313 0.24977,0 0.4445,0.105833 0.19473,0.1016 0.3048,0.287866 0.11006,0.182033 0.11006,0.423333 0,0.09737 -0.0212,0.198967 -0.0212,0.1016 -0.0677,0.211666 -0.0466,0.105833 -0.11853,0.224367 -0.072,0.1143 -0.17356,0.2413 -0.0974,0.126999 -0.22437,0.266699 l -0.6731,0.732366 -0.0847,-0.127 h 1.45627 v 0.440267 z"
         id="path12909" />
      <path
         d="m 109.3978,64.603755 v -2.404532 l 0.15664,0.118534 -0.5842,0.309033 -0.12277,-0.397933 0.79163,-0.423333 h 0.22014 v 2.798231 z m -0.4699,0.207433 v -0.440267 h 1.41394 v 0.440267 z"
         id="path12911" />
    </g>
    <g
       aria-label="24"
       id="text7641"
       style="font-size:4.23333px;line-height:1.25;font-family:Lexend;-inkscape-font-specification:'Lexend, Normal';font-variant-ligatures:none;stroke-width:0.264583">
      <path
         d="m 15.532843,40.99868 -0.1397,-0.347133 0.905932,-1.020232 q 0.07197,-0.0762 0.148167,-0.173567 0.08043,-0.1016 0.1524,-0.207433 0.07197,-0.105833 0.1143,-0.207433 0.04657,-0.105833 0.04657,-0.198967 0,-0.135466 -0.05503,-0.2286 -0.0508,-0.09737 -0.1524,-0.148166 -0.09737,-0.0508 -0.237066,-0.0508 -0.122767,0 -0.2413,0.07197 -0.118533,0.07197 -0.2159,0.203199 -0.09737,0.131234 -0.1524,0.3048 l -0.351366,-0.220133 q 0.07197,-0.245533 0.2159,-0.4191 0.148166,-0.1778 0.351366,-0.270933 0.207433,-0.09313 0.448733,-0.09313 0.249766,0 0.4445,0.105833 0.194733,0.1016 0.304799,0.287867 0.110067,0.182033 0.110067,0.423333 0,0.09737 -0.02117,0.198966 -0.02117,0.1016 -0.06773,0.211667 -0.04657,0.105833 -0.118533,0.224366 -0.07197,0.1143 -0.173567,0.2413 -0.09737,0.127 -0.224366,0.2667 l -0.6731,0.732366 -0.08467,-0.127 h 1.456265 v 0.440266 z"
         id="path12904" />
      <path
         d="m 18.869963,40.99868 v -2.387598 l 0.105834,0.0254 -0.973666,1.189566 -0.01693,-0.0508 h 1.841499 v 0.419099 h -2.125132 l -0.194733,-0.380999 1.452032,-1.777999 h 0.351367 v 2.963331 z"
         id="path12906" />
    </g>
    <g
       aria-label="25"
       id="text7747"
       style="font-size:4.23333px;line-height:1.25;font-family:Lexend;-inkscape-font-specification:'Lexend, Normal';font-variant-ligatures:none;stroke-width:0.264583">
      <path
         d="m 32.995342,40.99868 -0.1397,-0.347133 0.905933,-1.020232 q 0.07197,-0.0762 0.148167,-0.173567 0.08043,-0.1016 0.152399,-0.207433 0.07197,-0.105833 0.1143,-0.207433 0.04657,-0.105833 0.04657,-0.198967 0,-0.135466 -0.05503,-0.2286 -0.0508,-0.09737 -0.1524,-0.148166 -0.09737,-0.0508 -0.237067,-0.0508 -0.122766,0 -0.2413,0.07197 -0.118533,0.07197 -0.215899,0.203199 -0.09737,0.131234 -0.1524,0.3048 l -0.351367,-0.220133 q 0.07197,-0.245533 0.2159,-0.4191 0.148167,-0.1778 0.351367,-0.270933 0.207433,-0.09313 0.448733,-0.09313 0.249766,0 0.444499,0.105833 0.194733,0.1016 0.3048,0.287867 0.110067,0.182033 0.110067,0.423333 0,0.09737 -0.02117,0.198966 -0.02117,0.1016 -0.06773,0.211667 -0.04657,0.105833 -0.118534,0.224366 -0.07197,0.1143 -0.173566,0.2413 -0.09737,0.127 -0.224367,0.2667 l -0.673099,0.732366 -0.08467,-0.127 h 1.456266 v 0.440266 z"
         id="path12899" />
      <path
         d="m 36.012979,41.028313 q -0.2921,0 -0.529166,-0.131233 -0.237067,-0.135466 -0.3937,-0.385233 l 0.254,-0.283633 q 0.198966,0.220133 0.347133,0.300567 0.148166,0.08043 0.321733,0.08043 0.173566,0 0.313266,-0.0762 0.1397,-0.0762 0.220133,-0.207433 0.08467,-0.131234 0.08467,-0.2921 0,-0.169333 -0.08043,-0.300566 -0.0762,-0.135467 -0.207433,-0.211667 -0.131234,-0.08043 -0.296334,-0.08043 -0.08043,0 -0.152399,0.0127 -0.07197,0.0085 -0.173567,0.04657 -0.1016,0.0381 -0.2667,0.118534 l -0.2413,-0.325967 0.173567,-1.257299 h 1.600199 v 0.423333 h -1.312333 l 0.0889,-0.08043 -0.1397,0.939799 -0.105833,-0.122766 q 0.04233,-0.04233 0.143933,-0.08043 0.1016,-0.04233 0.224367,-0.06773 0.127,-0.02963 0.2413,-0.02963 0.270933,0 0.482599,0.127 0.2159,0.122766 0.338667,0.342899 0.127,0.220134 0.127,0.503767 0,0.292099 -0.1397,0.529166 -0.1397,0.232833 -0.381,0.372533 -0.2413,0.135466 -0.541866,0.135466 z"
         id="path12901" />
    </g>
    <g
       aria-label="28"
       id="text7853"
       style="font-size:4.23333px;line-height:1.25;font-family:Lexend;-inkscape-font-specification:'Lexend, Normal';font-variant-ligatures:none;stroke-width:0.264583">
      <path
         d="m 51.516182,40.99868 -0.1397,-0.347133 0.905933,-1.020232 q 0.07197,-0.0762 0.148166,-0.173567 0.08043,-0.1016 0.1524,-0.207433 0.07197,-0.105833 0.1143,-0.207433 0.04657,-0.105833 0.04657,-0.198967 0,-0.135466 -0.05503,-0.2286 -0.0508,-0.09737 -0.1524,-0.148166 -0.09737,-0.0508 -0.237066,-0.0508 -0.122767,0 -0.2413,0.07197 -0.118533,0.07197 -0.2159,0.203199 -0.09737,0.131234 -0.1524,0.3048 l -0.351366,-0.220133 q 0.07197,-0.245533 0.2159,-0.4191 0.148166,-0.1778 0.351366,-0.270933 0.207433,-0.09313 0.448733,-0.09313 0.249767,0 0.4445,0.105833 0.194733,0.1016 0.3048,0.287867 0.110066,0.182033 0.110066,0.423333 0,0.09737 -0.02117,0.198966 -0.02117,0.1016 -0.06773,0.211667 -0.04657,0.105833 -0.118533,0.224366 -0.07197,0.1143 -0.173566,0.2413 -0.09737,0.127 -0.224367,0.2667 l -0.673099,0.732366 -0.08467,-0.127 h 1.456265 v 0.440266 z"
         id="path12894" />
      <path
         d="m 54.669285,41.01138 q -0.275166,0 -0.503766,-0.1143 -0.224367,-0.118533 -0.359833,-0.313266 -0.135467,-0.194733 -0.135467,-0.4318 0,-0.131233 0.03387,-0.245533 0.0381,-0.118533 0.110066,-0.2159 0.0762,-0.09737 0.182034,-0.1778 0.105833,-0.08043 0.245533,-0.143933 l -0.0254,0.0889 q -0.110067,-0.04233 -0.198967,-0.1016 -0.08467,-0.0635 -0.148166,-0.143933 -0.0635,-0.08043 -0.09737,-0.173567 -0.02963,-0.09313 -0.02963,-0.194733 0,-0.224366 0.122766,-0.406399 0.127,-0.182034 0.334433,-0.2921 0.211667,-0.110067 0.4699,-0.110067 0.258233,0 0.465666,0.110067 0.211667,0.110066 0.334433,0.2921 0.127,0.182033 0.127,0.406399 0,0.1016 -0.03387,0.194733 -0.02963,0.09313 -0.0889,0.169334 -0.05927,0.0762 -0.1524,0.1397 -0.0889,0.0635 -0.2032,0.110066 l -0.0127,-0.07197 q 0.127,0.0508 0.2286,0.131234 0.105833,0.08043 0.182033,0.182033 0.0762,0.1016 0.1143,0.2159 0.04233,0.1143 0.04233,0.237066 0,0.2413 -0.135466,0.436033 -0.135467,0.194733 -0.364067,0.309033 -0.224366,0.1143 -0.503766,0.1143 z m 0,-0.423333 q 0.156633,0 0.2794,-0.05927 0.127,-0.05927 0.198966,-0.160867 0.07197,-0.1016 0.07197,-0.232833 0,-0.1397 -0.07197,-0.245533 -0.07197,-0.110067 -0.198966,-0.173567 -0.122767,-0.0635 -0.2794,-0.0635 -0.156633,0 -0.2794,0.0635 -0.122766,0.0635 -0.194733,0.173567 -0.07197,0.105833 -0.07197,0.245533 0,0.127 0.07197,0.2286 0.07197,0.1016 0.194733,0.1651 0.122767,0.05927 0.2794,0.05927 z m 0,-1.341965 q 0.135467,0 0.2413,-0.0508 0.110066,-0.0508 0.169333,-0.135467 0.0635,-0.0889 0.0635,-0.2032 0,-0.1143 -0.0635,-0.2032 -0.05927,-0.0889 -0.169333,-0.139699 -0.105833,-0.05503 -0.2413,-0.05503 -0.135466,0 -0.245533,0.05503 -0.105833,0.0508 -0.169333,0.139699 -0.05927,0.0889 -0.05927,0.2032 0,0.1143 0.05927,0.2032 0.0635,0.08467 0.169333,0.135467 0.110067,0.0508 0.245533,0.0508 z"
         id="path12896" />
    </g>
    <g
       aria-label="29"
       id="text7959"
       style="font-size:4.23333px;line-height:1.25;font-family:Lexend;-inkscape-font-specification:'Lexend, Normal';font-variant-ligatures:none;stroke-width:0.264583">
      <path
         d="m 69.507843,40.99868 -0.1397,-0.347133 0.905933,-1.020232 q 0.07197,-0.0762 0.148166,-0.173567 0.08043,-0.1016 0.1524,-0.207433 0.07197,-0.105833 0.1143,-0.207433 0.04657,-0.105833 0.04657,-0.198967 0,-0.135466 -0.05503,-0.2286 -0.0508,-0.09737 -0.152399,-0.148166 -0.09737,-0.0508 -0.237067,-0.0508 -0.122767,0 -0.2413,0.07197 -0.118533,0.07197 -0.2159,0.203199 -0.09737,0.131234 -0.152399,0.3048 l -0.351367,-0.220133 q 0.07197,-0.245533 0.2159,-0.4191 0.148167,-0.1778 0.351366,-0.270933 0.207434,-0.09313 0.448733,-0.09313 0.249767,0 0.4445,0.105833 0.194733,0.1016 0.3048,0.287867 0.110066,0.182033 0.110066,0.423333 0,0.09737 -0.02117,0.198966 -0.02117,0.1016 -0.06773,0.211667 -0.04657,0.105833 -0.118533,0.224366 -0.07197,0.1143 -0.173566,0.2413 -0.09737,0.127 -0.224367,0.2667 l -0.673099,0.732366 -0.08467,-0.127 h 1.456266 v 0.440266 z"
         id="path12889" />
      <path
         d="m 72.402713,40.99868 -0.01693,-0.04233 0.880532,-1.871132 0.0127,0.351366 q -0.0762,0.127 -0.169333,0.224367 -0.0889,0.09737 -0.198966,0.169333 -0.105834,0.06773 -0.220134,0.105833 -0.114299,0.03387 -0.232833,0.03387 -0.241299,0 -0.444499,-0.127 -0.2032,-0.127 -0.325967,-0.338666 -0.122766,-0.211667 -0.122766,-0.461433 0,-0.300567 0.135466,-0.537633 0.135467,-0.2413 0.3683,-0.381 0.237066,-0.1397 0.529166,-0.1397 0.211667,0 0.397933,0.0762 0.186267,0.0762 0.325967,0.2159 0.139699,0.135467 0.220133,0.3175 0.08043,0.1778 0.08043,0.380999 0,0.105834 -0.02117,0.2286 -0.02117,0.118534 -0.07197,0.270933 -0.04657,0.148167 -0.127,0.3429 -0.08043,0.1905 -0.198967,0.4445 l -0.351366,0.736599 z m 0.1524,-1.452032 q 0.1651,0 0.296333,-0.07197 0.131233,-0.0762 0.2032,-0.198966 0.0762,-0.127 0.0762,-0.283633 0,-0.1651 -0.07197,-0.296333 -0.07197,-0.135467 -0.2032,-0.211667 -0.127,-0.0762 -0.292099,-0.0762 -0.1524,0 -0.270934,0.0762 -0.118533,0.07197 -0.190499,0.2032 -0.06773,0.127 -0.06773,0.300566 0,0.148167 0.06773,0.275167 0.07197,0.127 0.190499,0.207433 0.118534,0.0762 0.262467,0.0762 z"
         id="path12891" />
    </g>
    <g
       aria-label="32"
       id="text8065"
       style="font-size:4.23333px;line-height:1.25;font-family:Lexend;-inkscape-font-specification:'Lexend, Normal';font-variant-ligatures:none;stroke-width:0.264583">
      <path
         d="m 88.16837,41.041013 q -0.313266,0 -0.546099,-0.143933 -0.2286,-0.143933 -0.4318,-0.482599 l 0.3556,-0.224367 q 0.105833,0.156633 0.207433,0.258233 0.105833,0.09737 0.2159,0.143933 0.110066,0.04657 0.232833,0.04657 0.148166,0 0.275166,-0.07197 0.127,-0.0762 0.2032,-0.207433 0.0762,-0.131233 0.0762,-0.296333 0,-0.1651 -0.05927,-0.2794 -0.05927,-0.118533 -0.173566,-0.177799 -0.1143,-0.0635 -0.270933,-0.0635 -0.07197,0 -0.1524,0.01693 -0.0762,0.0127 -0.1651,0.04233 -0.0889,0.0254 -0.194733,0.06773 l -0.127,-0.334433 0.914399,-1.007533 0.0889,0.131233 h -1.261532 v -0.423333 h 1.697565 l 0.08467,0.169333 -0.969433,1.075266 -0.105833,-0.110066 q 0.03387,-0.01693 0.110067,-0.02963 0.08043,-0.01693 0.131233,-0.01693 0.186266,0 0.347133,0.07197 0.1651,0.06773 0.283633,0.194733 0.122766,0.122766 0.1905,0.2921 0.07197,0.165099 0.07197,0.355599 0,0.287867 -0.1397,0.516466 -0.135466,0.224367 -0.368299,0.3556 -0.232833,0.131233 -0.5207,0.131233 z"
         id="path12884" />
      <path
         d="m 89.740192,40.99868 -0.139699,-0.347133 0.905932,-1.020232 q 0.07197,-0.0762 0.148167,-0.173567 0.08043,-0.1016 0.1524,-0.207433 0.07197,-0.105833 0.114299,-0.207433 0.04657,-0.105833 0.04657,-0.198967 0,-0.135466 -0.05503,-0.2286 -0.0508,-0.09737 -0.1524,-0.148166 -0.09737,-0.0508 -0.237067,-0.0508 -0.122766,0 -0.241299,0.07197 -0.118534,0.07197 -0.2159,0.203199 -0.09737,0.131234 -0.1524,0.3048 l -0.351366,-0.220133 q 0.07197,-0.245533 0.215899,-0.4191 0.148167,-0.1778 0.351367,-0.270933 0.207433,-0.09313 0.448733,-0.09313 0.249766,0 0.444499,0.105833 0.194734,0.1016 0.3048,0.287867 0.110067,0.182033 0.110067,0.423333 0,0.09737 -0.02117,0.198966 -0.02117,0.1016 -0.06773,0.211667 -0.04657,0.105833 -0.118533,0.224366 -0.07197,0.1143 -0.173567,0.2413 -0.09737,0.127 -0.224366,0.2667 l -0.6731,0.732366 -0.08467,-0.127 h 1.456266 v 0.440266 z"
         id="path12886" />
    </g>
    <g
       aria-label="33"
       id="text8171"
       style="font-size:4.23333px;line-height:1.25;font-family:Lexend;-inkscape-font-specification:'Lexend, Normal';font-variant-ligatures:none;stroke-width:0.264583">
      <path
         d="m 107.74753,41.041013 q -0.31327,0 -0.5461,-0.143933 -0.2286,-0.143933 -0.4318,-0.482599 l 0.3556,-0.224367 q 0.10583,0.156633 0.20743,0.258233 0.10583,0.09737 0.2159,0.143933 0.11007,0.04657 0.23283,0.04657 0.14817,0 0.27517,-0.07197 0.127,-0.0762 0.2032,-0.207433 0.0762,-0.131233 0.0762,-0.296333 0,-0.1651 -0.0593,-0.2794 -0.0593,-0.118533 -0.17357,-0.177799 -0.1143,-0.0635 -0.27093,-0.0635 -0.072,0 -0.1524,0.01693 -0.0762,0.0127 -0.1651,0.04233 -0.0889,0.0254 -0.19473,0.06773 l -0.127,-0.334433 0.9144,-1.007533 0.0889,0.131233 h -1.26153 v -0.423333 h 1.69756 l 0.0847,0.169333 -0.96943,1.075266 -0.10584,-0.110066 q 0.0339,-0.01693 0.11007,-0.02963 0.0804,-0.01693 0.13123,-0.01693 0.18627,0 0.34713,0.07197 0.1651,0.06773 0.28364,0.194733 0.12276,0.122766 0.1905,0.2921 0.072,0.165099 0.072,0.355599 0,0.287867 -0.1397,0.516466 -0.13546,0.224367 -0.3683,0.3556 -0.23283,0.131233 -0.52069,0.131233 z"
         id="path12879" />
      <path
         d="m 109.98821,41.041013 q -0.31326,0 -0.5461,-0.143933 -0.2286,-0.143933 -0.4318,-0.482599 l 0.3556,-0.224367 q 0.10584,0.156633 0.20744,0.258233 0.10583,0.09737 0.2159,0.143933 0.11006,0.04657 0.23283,0.04657 0.14817,0 0.27517,-0.07197 0.127,-0.0762 0.2032,-0.207433 0.0762,-0.131233 0.0762,-0.296333 0,-0.1651 -0.0593,-0.2794 -0.0593,-0.118533 -0.17357,-0.177799 -0.1143,-0.0635 -0.27093,-0.0635 -0.072,0 -0.1524,0.01693 -0.0762,0.0127 -0.1651,0.04233 -0.0889,0.0254 -0.19473,0.06773 l -0.127,-0.334433 0.9144,-1.007533 0.0889,0.131233 h -1.26154 v -0.423333 h 1.69757 l 0.0847,0.169333 -0.96944,1.075266 -0.10583,-0.110066 q 0.0339,-0.01693 0.11007,-0.02963 0.0804,-0.01693 0.13123,-0.01693 0.18627,0 0.34713,0.07197 0.1651,0.06773 0.28364,0.194733 0.12276,0.122766 0.1905,0.2921 0.072,0.165099 0.072,0.355599 0,0.287867 -0.1397,0.516466 -0.13546,0.224367 -0.3683,0.3556 -0.23283,0.131233 -0.5207,0.131233 z"
         id="path12881" />
    </g>
    <g
       aria-label="26"
       id="text8277"
       style="font-size:4.23333px;line-height:1.25;font-family:Lexend;-inkscape-font-specification:'Lexend, Normal';font-variant-ligatures:none;stroke-width:0.264583">
      <path
         d="m 15.532848,27.76951 -0.1397,-0.347133 0.905933,-1.020232 q 0.07197,-0.0762 0.148167,-0.173567 0.08043,-0.1016 0.152399,-0.207433 0.07197,-0.105833 0.1143,-0.207433 0.04657,-0.105833 0.04657,-0.198967 0,-0.135466 -0.05503,-0.228599 -0.0508,-0.09737 -0.1524,-0.148167 -0.09737,-0.0508 -0.237067,-0.0508 -0.122766,0 -0.241299,0.07197 -0.118534,0.07197 -0.2159,0.2032 -0.09737,0.131233 -0.1524,0.304799 l -0.351366,-0.220133 q 0.07197,-0.245533 0.215899,-0.4191 0.148167,-0.177799 0.351367,-0.270933 0.207433,-0.09313 0.448733,-0.09313 0.249766,0 0.444499,0.105833 0.194733,0.1016 0.3048,0.287867 0.110067,0.182033 0.110067,0.423333 0,0.09737 -0.02117,0.198966 -0.02117,0.1016 -0.06773,0.211667 -0.04657,0.105833 -0.118534,0.224366 -0.07197,0.1143 -0.173566,0.2413 -0.09737,0.127 -0.224367,0.2667 l -0.673099,0.732366 -0.08467,-0.127 h 1.456266 v 0.440266 z"
         id="path12874" />
      <path
         d="m 18.660551,27.76951 q -0.220133,0 -0.410632,-0.0762 -0.186267,-0.08043 -0.325967,-0.220133 -0.135466,-0.1397 -0.2159,-0.3302 -0.0762,-0.190499 -0.0762,-0.419099 0,-0.1143 0.02963,-0.254 0.03387,-0.143933 0.09737,-0.313266 0.06773,-0.169334 0.160867,-0.3556 0.09313,-0.1905 0.2159,-0.3937 l 0.385233,-0.651933 h 0.444499 l 0.01693,0.04233 -0.465667,0.783166 q -0.127,0.2159 -0.2286,0.410633 -0.09737,0.194733 -0.165099,0.368299 -0.06773,0.169334 -0.1016,0.309034 l -0.1016,-0.436033 q 0.08043,-0.131234 0.173566,-0.2286 0.09313,-0.1016 0.198967,-0.169333 0.110066,-0.06773 0.2286,-0.1016 0.118533,-0.03387 0.245533,-0.03387 0.245533,0 0.448733,0.135467 0.207433,0.131233 0.330199,0.351366 0.127,0.220133 0.127,0.4826 0,0.317499 -0.131233,0.567266 -0.127,0.245533 -0.3556,0.389466 -0.228599,0.143933 -0.524933,0.143933 z m 0,-0.423333 q 0.1651,0 0.2921,-0.0762 0.131233,-0.08043 0.2032,-0.220133 0.0762,-0.143933 0.0762,-0.325966 0,-0.156633 -0.0762,-0.2921 -0.0762,-0.1397 -0.2032,-0.224366 -0.127,-0.08467 -0.283633,-0.08467 -0.173566,0 -0.309033,0.08043 -0.135466,0.08043 -0.211666,0.2159 -0.0762,0.135467 -0.0762,0.300566 0,0.1778 0.0762,0.321734 0.0762,0.139699 0.207433,0.224366 0.131233,0.08043 0.304799,0.08043 z"
         id="path12876" />
    </g>
    <g
       aria-label="27"
       id="text8383"
       style="font-size:4.23333px;line-height:1.25;font-family:Lexend;-inkscape-font-specification:'Lexend, Normal';font-variant-ligatures:none;stroke-width:0.264583">
      <path
         d="m 32.995342,27.76951 -0.1397,-0.347133 0.905933,-1.020232 q 0.07197,-0.0762 0.148167,-0.173567 0.08043,-0.1016 0.152399,-0.207433 0.07197,-0.105833 0.1143,-0.207433 0.04657,-0.105833 0.04657,-0.198967 0,-0.135466 -0.05503,-0.228599 -0.0508,-0.09737 -0.1524,-0.148167 -0.09737,-0.0508 -0.237067,-0.0508 -0.122766,0 -0.2413,0.07197 -0.118533,0.07197 -0.215899,0.2032 -0.09737,0.131233 -0.1524,0.304799 l -0.351367,-0.220133 q 0.07197,-0.245533 0.2159,-0.4191 0.148167,-0.177799 0.351367,-0.270933 0.207433,-0.09313 0.448733,-0.09313 0.249766,0 0.444499,0.105833 0.194733,0.1016 0.3048,0.287867 0.110067,0.182033 0.110067,0.423333 0,0.09737 -0.02117,0.198966 -0.02117,0.1016 -0.06773,0.211667 -0.04657,0.105833 -0.118534,0.224366 -0.07197,0.1143 -0.173566,0.2413 -0.09737,0.127 -0.224367,0.2667 l -0.673099,0.732366 -0.08467,-0.127 h 1.456266 v 0.440266 z"
         id="path12869" />
      <path
         d="m 35.399146,27.76951 1.227666,-2.675464 0.0508,0.135466 h -1.498599 v -0.423333 h 1.833032 l 0.05927,0.2921 -1.181099,2.671231 z"
         id="path12871" />
    </g>
    <g
       aria-label="30"
       id="text8489"
       style="font-size:4.23333px;line-height:1.25;font-family:Lexend;-inkscape-font-specification:'Lexend, Normal';font-variant-ligatures:none;stroke-width:0.264583">
      <path
         d="m 52.714215,27.811844 q -0.313266,0 -0.546099,-0.143934 -0.2286,-0.143933 -0.4318,-0.482599 l 0.3556,-0.224367 q 0.105833,0.156633 0.207433,0.258233 0.105833,0.09737 0.2159,0.143934 0.110066,0.04657 0.232833,0.04657 0.148166,0 0.275166,-0.07197 0.127,-0.0762 0.2032,-0.207434 0.0762,-0.131233 0.0762,-0.296333 0,-0.165099 -0.05927,-0.279399 -0.05927,-0.118534 -0.173566,-0.1778 -0.1143,-0.0635 -0.270933,-0.0635 -0.07197,0 -0.1524,0.01693 -0.0762,0.0127 -0.1651,0.04233 -0.0889,0.0254 -0.194733,0.06773 l -0.127,-0.334433 0.914399,-1.007533 0.0889,0.131233 h -1.261532 v -0.423333 h 1.697565 l 0.08467,0.169334 -0.969433,1.075265 -0.105833,-0.110066 q 0.03387,-0.01693 0.110067,-0.02963 0.08043,-0.01693 0.131233,-0.01693 0.186266,0 0.347133,0.07197 0.1651,0.06773 0.283633,0.194733 0.122767,0.122767 0.1905,0.2921 0.07197,0.1651 0.07197,0.355599 0,0.287867 -0.139699,0.516467 -0.135467,0.224366 -0.3683,0.355599 -0.232833,0.131234 -0.5207,0.131234 z"
         id="path12864" />
      <path
         d="m 55.175037,27.811844 q -0.338667,0 -0.5842,-0.186267 -0.2413,-0.186266 -0.372533,-0.524933 -0.131233,-0.3429 -0.131233,-0.812799 0,-0.4699 0.131233,-0.808566 0.131233,-0.3429 0.372533,-0.529166 0.245533,-0.186267 0.5842,-0.186267 0.338666,0 0.584199,0.186267 0.245533,0.186266 0.376767,0.529166 0.131233,0.338666 0.131233,0.808566 0,0.469899 -0.131233,0.812799 -0.131234,0.338667 -0.376767,0.524933 -0.245533,0.186267 -0.584199,0.186267 z m 0,-0.414867 q 0.309033,0 0.478366,-0.287866 0.169333,-0.2921 0.169333,-0.821266 0,-0.529166 -0.169333,-0.817033 -0.169333,-0.2921 -0.478366,-0.2921 -0.309033,0 -0.478367,0.2921 -0.169333,0.287867 -0.169333,0.817033 0,0.529166 0.169333,0.821266 0.169334,0.287866 0.478367,0.287866 z"
         id="path12866" />
    </g>
    <g
       aria-label="31"
       id="text8595"
       style="font-size:4.23333px;line-height:1.25;font-family:Lexend;-inkscape-font-specification:'Lexend, Normal';font-variant-ligatures:none;stroke-width:0.264583">
      <path
         d="m 70.705884,27.811844 q -0.313266,0 -0.5461,-0.143934 -0.228599,-0.143933 -0.431799,-0.482599 l 0.355599,-0.224367 q 0.105834,0.156633 0.207434,0.258233 0.105833,0.09737 0.215899,0.143934 0.110067,0.04657 0.232834,0.04657 0.148166,0 0.275166,-0.07197 0.127,-0.0762 0.2032,-0.207434 0.0762,-0.131233 0.0762,-0.296333 0,-0.165099 -0.05927,-0.279399 -0.05927,-0.118534 -0.173566,-0.1778 -0.1143,-0.0635 -0.270933,-0.0635 -0.07197,0 -0.1524,0.01693 -0.0762,0.0127 -0.1651,0.04233 -0.0889,0.0254 -0.194733,0.06773 l -0.127,-0.334433 0.914399,-1.007533 0.0889,0.131233 h -1.261532 v -0.423333 h 1.697565 l 0.08467,0.169334 -0.969432,1.075265 -0.105833,-0.110066 q 0.03387,-0.01693 0.110066,-0.02963 0.08043,-0.01693 0.131234,-0.01693 0.186266,0 0.347133,0.07197 0.165099,0.06773 0.283633,0.194733 0.122766,0.122767 0.190499,0.2921 0.07197,0.1651 0.07197,0.355599 0,0.287867 -0.1397,0.516467 -0.135466,0.224366 -0.368299,0.355599 -0.232834,0.131234 -0.5207,0.131234 z"
         id="path12859" />
      <path
         d="m 72.802639,27.562077 v -2.404531 l 0.156633,0.118533 -0.584199,0.309033 -0.122767,-0.397933 0.791633,-0.423333 h 0.220133 v 2.798231 z m -0.4699,0.207433 v -0.440266 h 1.413933 v 0.440266 z"
         id="path12861" />
    </g>
    <g
       aria-label="34"
       id="text8701"
       style="font-size:4.23333px;line-height:1.25;font-family:Lexend;-inkscape-font-specification:'Lexend, Normal';font-variant-ligatures:none;stroke-width:0.264583">
      <path
         d="m 87.639203,27.811844 q -0.313266,0 -0.546099,-0.143934 -0.2286,-0.143933 -0.4318,-0.482599 l 0.3556,-0.224367 q 0.105833,0.156633 0.207433,0.258233 0.105833,0.09737 0.2159,0.143934 0.110066,0.04657 0.232833,0.04657 0.148166,0 0.275166,-0.07197 0.127,-0.0762 0.2032,-0.207434 0.0762,-0.131233 0.0762,-0.296333 0,-0.165099 -0.05927,-0.279399 -0.05927,-0.118534 -0.173566,-0.1778 -0.1143,-0.0635 -0.270933,-0.0635 -0.07197,0 -0.1524,0.01693 -0.0762,0.0127 -0.1651,0.04233 -0.0889,0.0254 -0.194733,0.06773 l -0.127,-0.334433 0.914399,-1.007533 0.0889,0.131233 h -1.261532 v -0.423333 h 1.697565 l 0.08467,0.169334 -0.969433,1.075265 -0.105833,-0.110066 q 0.03387,-0.01693 0.110066,-0.02963 0.08043,-0.01693 0.131234,-0.01693 0.186266,0 0.347133,0.07197 0.165099,0.06773 0.283633,0.194733 0.122766,0.122767 0.1905,0.2921 0.07197,0.1651 0.07197,0.355599 0,0.287867 -0.1397,0.516467 -0.135466,0.224366 -0.368299,0.355599 -0.232834,0.131234 -0.5207,0.131234 z"
         id="path12854" />
      <path
         d="m 90.307458,27.76951 v -2.387598 l 0.105833,0.0254 -0.973666,1.189566 -0.01693,-0.0508 h 1.841498 v 0.4191 h -2.125131 l -0.194734,-0.381 1.452033,-1.777999 h 0.351366 v 2.963331 z"
         id="path12856" />
    </g>
    <g
       aria-label="35"
       id="text8807"
       style="font-size:4.23333px;line-height:1.25;font-family:Lexend;-inkscape-font-specification:'Lexend, Normal';font-variant-ligatures:none;stroke-width:0.264583">
      <path
         d="m 107.74753,27.811844 q -0.31327,0 -0.5461,-0.143934 -0.2286,-0.143933 -0.4318,-0.482599 l 0.3556,-0.224367 q 0.10583,0.156633 0.20743,0.258233 0.10583,0.09737 0.2159,0.143934 0.11007,0.04657 0.23283,0.04657 0.14817,0 0.27517,-0.07197 0.127,-0.0762 0.2032,-0.207434 0.0762,-0.131233 0.0762,-0.296333 0,-0.165099 -0.0593,-0.279399 -0.0593,-0.118534 -0.17357,-0.1778 -0.1143,-0.0635 -0.27093,-0.0635 -0.072,0 -0.1524,0.01693 -0.0762,0.0127 -0.1651,0.04233 -0.0889,0.0254 -0.19473,0.06773 l -0.127,-0.334433 0.9144,-1.007533 0.0889,0.131233 h -1.26153 v -0.423333 h 1.69756 l 0.0847,0.169334 -0.96943,1.075265 -0.10584,-0.110066 q 0.0339,-0.01693 0.11007,-0.02963 0.0804,-0.01693 0.13123,-0.01693 0.18627,0 0.34713,0.07197 0.1651,0.06773 0.28364,0.194733 0.12276,0.122767 0.1905,0.2921 0.072,0.1651 0.072,0.355599 0,0.287867 -0.1397,0.516467 -0.13546,0.224366 -0.3683,0.355599 -0.23283,0.131234 -0.52069,0.131234 z"
         id="path12849" />
      <path
         d="m 110.01361,27.799144 q -0.2921,0 -0.52916,-0.131234 -0.23707,-0.135466 -0.3937,-0.385233 l 0.254,-0.283633 q 0.19896,0.220133 0.34713,0.300567 0.14817,0.08043 0.32173,0.08043 0.17357,0 0.31327,-0.0762 0.1397,-0.0762 0.22013,-0.207433 0.0847,-0.131233 0.0847,-0.2921 0,-0.169333 -0.0804,-0.300566 -0.0762,-0.135467 -0.20744,-0.211667 -0.13123,-0.08043 -0.29633,-0.08043 -0.0804,0 -0.1524,0.0127 -0.072,0.0085 -0.17357,0.04657 -0.1016,0.0381 -0.2667,0.118533 l -0.2413,-0.325967 0.17357,-1.257299 h 1.6002 v 0.423333 h -1.31233 l 0.0889,-0.08043 -0.1397,0.939799 -0.10584,-0.122766 q 0.0423,-0.04233 0.14394,-0.08043 0.1016,-0.04233 0.22436,-0.06773 0.127,-0.02963 0.2413,-0.02963 0.27094,0 0.4826,0.127 0.2159,0.122766 0.33867,0.3429 0.127,0.220133 0.127,0.503766 0,0.2921 -0.1397,0.529166 -0.1397,0.232833 -0.381,0.372533 -0.2413,0.135467 -0.54187,0.135467 z"
         id="path12851" />
    </g>
    <g
       aria-label="2"
       id="text8913"
       style="font-size:4.23333px;line-height:1.25;font-family:Lexend;-inkscape-font-specification:'Lexend, Normal';font-variant-ligatures:none;stroke-width:0.264583">
      <path
         d="m 16.062041,75.394531 -0.1397,-0.347133 0.905933,-1.020232 q 0.07197,-0.0762 0.148167,-0.173567 0.08043,-0.1016 0.152399,-0.207433 0.07197,-0.105833 0.1143,-0.207433 0.04657,-0.105833 0.04657,-0.198967 0,-0.135466 -0.05503,-0.228599 -0.0508,-0.09737 -0.1524,-0.148167 -0.09737,-0.0508 -0.237067,-0.0508 -0.122766,0 -0.241299,0.07197 -0.118534,0.07197 -0.2159,0.2032 -0.09737,0.131233 -0.1524,0.304799 l -0.351367,-0.220133 q 0.07197,-0.245533 0.2159,-0.4191 0.148167,-0.177799 0.351367,-0.270933 0.207433,-0.09313 0.448733,-0.09313 0.249766,0 0.444499,0.105833 0.194733,0.1016 0.3048,0.287867 0.110067,0.182033 0.110067,0.423333 0,0.09737 -0.02117,0.198966 -0.02117,0.1016 -0.06773,0.211667 -0.04657,0.105833 -0.118534,0.224366 -0.07197,0.1143 -0.173566,0.2413 -0.09737,0.127 -0.224367,0.2667 l -0.673099,0.732366 -0.08467,-0.127 h 1.456266 v 0.440266 z"
         id="path12846" />
    </g>
    <g
       aria-label="3"
       id="text9019"
       style="font-size:4.23333px;line-height:1.25;font-family:Lexend;-inkscape-font-specification:'Lexend, Normal';font-variant-ligatures:none;stroke-width:0.264583">
      <path
         d="m 34.193402,75.436865 q -0.313266,0 -0.546099,-0.143934 -0.2286,-0.143933 -0.4318,-0.482599 l 0.3556,-0.224367 q 0.105833,0.156633 0.207433,0.258233 0.105833,0.09737 0.2159,0.143934 0.110066,0.04657 0.232833,0.04657 0.148166,0 0.275166,-0.07197 0.127,-0.0762 0.2032,-0.207434 0.0762,-0.131233 0.0762,-0.296333 0,-0.165099 -0.05927,-0.279399 -0.05927,-0.118534 -0.173566,-0.1778 -0.1143,-0.0635 -0.270933,-0.0635 -0.07197,0 -0.1524,0.01693 -0.0762,0.0127 -0.1651,0.04233 -0.0889,0.0254 -0.194733,0.06773 l -0.127,-0.334433 0.914399,-1.007533 0.0889,0.131233 H 33.380603 V 72.4312 h 1.697565 l 0.08467,0.169334 -0.969433,1.075265 -0.105833,-0.110066 q 0.03387,-0.01693 0.110067,-0.02963 0.08043,-0.01693 0.131233,-0.01693 0.186266,0 0.347133,0.07197 0.1651,0.06773 0.283633,0.194733 0.122767,0.122766 0.1905,0.2921 0.07197,0.1651 0.07197,0.355599 0,0.287867 -0.139699,0.516467 -0.135467,0.224366 -0.3683,0.355599 -0.232833,0.131234 -0.5207,0.131234 z"
         id="path12843" />
    </g>
    <g
       aria-label="6"
       id="text9231"
       style="font-size:4.23333px;line-height:1.25;font-family:Lexend;-inkscape-font-specification:'Lexend, Normal';font-variant-ligatures:none;stroke-width:0.264583"
       transform="translate(-18.793093,-0.60137898)">
      <path
         d="m 69.783039,75.394531 q -0.220133,0 -0.410633,-0.0762 -0.186266,-0.08043 -0.325966,-0.220133 -0.135467,-0.1397 -0.2159,-0.3302 -0.0762,-0.190499 -0.0762,-0.419099 0,-0.1143 0.02963,-0.254 0.03387,-0.143933 0.09737,-0.313266 0.06773,-0.169334 0.160866,-0.3556 0.09313,-0.1905 0.2159,-0.3937 L 69.643339,72.3804 h 0.4445 l 0.01693,0.04233 -0.465666,0.783166 q -0.127,0.2159 -0.2286,0.410633 -0.09737,0.194733 -0.1651,0.368299 -0.06773,0.169334 -0.1016,0.309034 l -0.1016,-0.436033 q 0.08043,-0.131234 0.173567,-0.2286 0.09313,-0.1016 0.198966,-0.169333 0.110067,-0.06773 0.2286,-0.1016 0.118533,-0.03387 0.245533,-0.03387 0.245533,0 0.448733,0.135467 0.207433,0.131233 0.3302,0.351366 0.127,0.220133 0.127,0.4826 0,0.317499 -0.131233,0.567266 -0.127,0.245533 -0.3556,0.389466 -0.2286,0.143933 -0.524933,0.143933 z m 0,-0.423333 q 0.1651,0 0.2921,-0.0762 0.131233,-0.08043 0.2032,-0.220133 0.0762,-0.143933 0.0762,-0.325966 0,-0.156633 -0.0762,-0.2921 -0.0762,-0.1397 -0.2032,-0.224366 -0.127,-0.08467 -0.283633,-0.08467 -0.173567,0 -0.309033,0.08043 -0.135467,0.08043 -0.211667,0.2159 -0.0762,0.135467 -0.0762,0.300566 0,0.1778 0.0762,0.321734 0.0762,0.139699 0.207433,0.224366 0.131234,0.08043 0.3048,0.08043 z"
         id="path12837" />
    </g>
    <g
       aria-label="10"
       id="text9337"
       style="font-size:4.23333px;line-height:1.25;font-family:Lexend;-inkscape-font-specification:'Lexend, Normal';font-variant-ligatures:none;stroke-width:0.264583">
      <path
         d="m 88.553635,75.187098 v -2.404531 l 0.156633,0.118533 -0.5842,0.309033 -0.122766,-0.397933 0.791632,-0.423333 h 0.220134 v 2.798231 z m -0.4699,0.207433 v -0.440266 h 1.413932 v 0.440266 z"
         id="path12832" />
      <path
         d="m 91.034366,75.436865 q -0.338666,0 -0.5842,-0.186267 -0.241299,-0.186266 -0.372533,-0.524933 -0.131233,-0.3429 -0.131233,-0.812799 0,-0.4699 0.131233,-0.808566 0.131234,-0.3429 0.372533,-0.529166 0.245534,-0.186267 0.5842,-0.186267 0.338666,0 0.584199,0.186267 0.245534,0.186266 0.376767,0.529166 0.131233,0.338666 0.131233,0.808566 0,0.469899 -0.131233,0.812799 -0.131233,0.338667 -0.376767,0.524933 -0.245533,0.186267 -0.584199,0.186267 z m 0,-0.414867 q 0.309033,0 0.478366,-0.287866 0.169333,-0.2921 0.169333,-0.821266 0,-0.529166 -0.169333,-0.817033 -0.169333,-0.2921 -0.478366,-0.2921 -0.309033,0 -0.478366,0.2921 -0.169334,0.287867 -0.169334,0.817033 0,0.529166 0.169334,0.821266 0.169333,0.287866 0.478366,0.287866 z"
         id="path12834" />
    </g>
    <g
       aria-label="11"
       id="text9443"
       style="font-size:4.23333px;line-height:1.25;font-family:Lexend;-inkscape-font-specification:'Lexend, Normal';font-variant-ligatures:none;stroke-width:0.264583">
      <path
         d="m 107.07446,75.187098 v -2.404531 l 0.15663,0.118533 -0.5842,0.309033 -0.12277,-0.397933 0.79164,-0.423333 h 0.22013 v 2.798231 z m -0.4699,0.207433 v -0.440266 h 1.41393 v 0.440266 z"
         id="path12827" />
      <path
         d="m 109.19112,75.187098 v -2.404531 l 0.15663,0.118533 -0.5842,0.309033 -0.12276,-0.397933 0.79163,-0.423333 h 0.22013 v 2.798231 z m -0.4699,0.207433 v -0.440266 h 1.41393 v 0.440266 z"
         id="path12829" />
    </g>
    <g
       aria-label="14"
       id="text9549"
       style="font-size:4.23333px;line-height:1.25;font-family:Lexend;-inkscape-font-specification:'Lexend, Normal';font-variant-ligatures:none;stroke-width:0.264583">
      <path
         d="m 16.057808,51.903754 v -2.404531 l 0.156633,0.118533 -0.584199,0.309033 -0.122767,-0.397933 0.791633,-0.423333 h 0.220133 v 2.798231 z m -0.4699,0.207433 v -0.440266 h 1.413933 v 0.440266 z"
         id="path12822" />
      <path
         d="m 18.745972,52.111187 v -2.387598 l 0.105834,0.0254 -0.973666,1.189566 -0.01693,-0.0508 h 1.841499 v 0.419099 h -2.125132 l -0.194733,-0.380999 1.452032,-1.777999 h 0.351367 v 2.963331 z"
         id="path12824" />
    </g>
    <g
       aria-label="15"
       id="text9655"
       style="font-size:4.23333px;line-height:1.25;font-family:Lexend;-inkscape-font-specification:'Lexend, Normal';font-variant-ligatures:none;stroke-width:0.264583">
      <path
         d="m 34.049477,51.903754 v -2.404531 l 0.156633,0.118533 -0.5842,0.309033 -0.122766,-0.397933 0.791632,-0.423333 h 0.220134 v 2.798231 z m -0.4699,0.207433 v -0.440266 h 1.413932 v 0.440266 z"
         id="path12817" />
      <path
         d="m 36.335475,52.14082 q -0.2921,0 -0.529166,-0.131233 -0.237067,-0.135466 -0.3937,-0.385233 l 0.254,-0.283633 q 0.198966,0.220133 0.347133,0.300566 0.148166,0.08043 0.321733,0.08043 0.173566,0 0.313266,-0.0762 0.1397,-0.0762 0.220133,-0.207433 0.08467,-0.131234 0.08467,-0.2921 0,-0.169333 -0.08043,-0.300567 -0.0762,-0.135466 -0.207434,-0.211666 -0.131233,-0.08043 -0.296333,-0.08043 -0.08043,0 -0.152399,0.0127 -0.07197,0.0085 -0.173567,0.04657 -0.1016,0.0381 -0.2667,0.118533 l -0.2413,-0.325966 0.173567,-1.257299 h 1.600199 v 0.423333 h -1.312333 l 0.0889,-0.08043 -0.1397,0.939799 -0.105833,-0.122767 q 0.04233,-0.04233 0.143933,-0.08043 0.1016,-0.04233 0.224367,-0.06773 0.127,-0.02963 0.2413,-0.02963 0.270933,0 0.482599,0.127 0.2159,0.122766 0.338667,0.342899 0.127,0.220133 0.127,0.503766 0,0.2921 -0.1397,0.529167 -0.1397,0.232833 -0.381,0.372533 -0.2413,0.135466 -0.541866,0.135466 z"
         id="path12819" />
    </g>
    <g
       aria-label="18"
       id="text9761"
       style="font-size:4.23333px;line-height:1.25;font-family:Lexend;-inkscape-font-specification:'Lexend, Normal';font-variant-ligatures:none;stroke-width:0.264583">
      <path
         d="m 52.041149,51.903754 v -2.404531 l 0.156633,0.118533 -0.584199,0.309033 -0.122767,-0.397933 0.791633,-0.423333 h 0.220133 v 2.798231 z m -0.469899,0.207433 v -0.440266 h 1.413932 v 0.440266 z"
         id="path12812" />
      <path
         d="m 54.462614,52.123887 q -0.275167,0 -0.503766,-0.1143 -0.224367,-0.118533 -0.359833,-0.313266 -0.135467,-0.194734 -0.135467,-0.4318 0,-0.131233 0.03387,-0.245533 0.0381,-0.118533 0.110066,-0.2159 0.0762,-0.09737 0.182033,-0.1778 0.105834,-0.08043 0.245534,-0.143933 l -0.0254,0.0889 q -0.110067,-0.04233 -0.198967,-0.1016 -0.08467,-0.0635 -0.148167,-0.143933 -0.0635,-0.08043 -0.09737,-0.173567 -0.02963,-0.09313 -0.02963,-0.194733 0,-0.224366 0.122766,-0.4064 0.127,-0.182033 0.334433,-0.292099 0.211667,-0.110067 0.4699,-0.110067 0.258233,0 0.465666,0.110067 0.211667,0.110066 0.334433,0.292099 0.127,0.182034 0.127,0.4064 0,0.1016 -0.03387,0.194733 -0.02963,0.09313 -0.0889,0.169333 -0.05927,0.0762 -0.152399,0.1397 -0.0889,0.0635 -0.2032,0.110067 l -0.0127,-0.07197 q 0.127,0.0508 0.2286,0.131234 0.105833,0.08043 0.182033,0.182033 0.0762,0.1016 0.1143,0.2159 0.04233,0.114299 0.04233,0.237066 0,0.2413 -0.135467,0.436033 -0.135466,0.194733 -0.364066,0.309033 -0.224366,0.1143 -0.503766,0.1143 z m 0,-0.423333 q 0.156633,0 0.2794,-0.05927 0.126999,-0.05927 0.198966,-0.160866 0.07197,-0.1016 0.07197,-0.232833 0,-0.1397 -0.07197,-0.245533 -0.07197,-0.110067 -0.198966,-0.173567 -0.122767,-0.0635 -0.2794,-0.0635 -0.156633,0 -0.2794,0.0635 -0.122767,0.0635 -0.194733,0.173567 -0.07197,0.105833 -0.07197,0.245533 0,0.127 0.07197,0.2286 0.07197,0.101599 0.194733,0.165099 0.122767,0.05927 0.2794,0.05927 z m 0,-1.341966 q 0.135466,0 0.2413,-0.0508 0.110066,-0.0508 0.169333,-0.135466 0.0635,-0.0889 0.0635,-0.2032 0,-0.1143 -0.0635,-0.2032 -0.05927,-0.0889 -0.169333,-0.1397 -0.105834,-0.05503 -0.2413,-0.05503 -0.135467,0 -0.245533,0.05503 -0.105834,0.0508 -0.169333,0.1397 -0.05927,0.0889 -0.05927,0.2032 0,0.1143 0.05927,0.2032 0.0635,0.08467 0.169333,0.135466 0.110066,0.0508 0.245533,0.0508 z"
         id="path12814" />
    </g>
    <g
       aria-label="19"
       id="text11549"
       style="font-size:4.23333px;line-height:1.25;font-family:Lexend;-inkscape-font-specification:'Lexend, Normal';font-variant-ligatures:none;stroke-width:0.264583">
      <path
         d="m 69.503655,51.903754 v -2.404531 l 0.156633,0.118533 -0.5842,0.309033 -0.122766,-0.397933 0.791632,-0.423333 h 0.220133 v 2.798231 z m -0.4699,0.207433 v -0.440266 h 1.413932 v 0.440266 z"
         id="path12807" />
      <path
         d="m 71.666886,52.111187 -0.01693,-0.04233 0.880532,-1.871132 0.0127,0.351366 q -0.0762,0.127 -0.169333,0.224367 -0.0889,0.09737 -0.198966,0.169333 -0.105834,0.06773 -0.220134,0.105833 -0.114299,0.03387 -0.232833,0.03387 -0.241299,0 -0.444499,-0.127 -0.2032,-0.127 -0.325967,-0.338666 -0.122766,-0.211667 -0.122766,-0.461433 0,-0.300567 0.135466,-0.537633 0.135467,-0.2413 0.3683,-0.381 0.237066,-0.1397 0.529166,-0.1397 0.211667,0 0.397933,0.0762 0.186267,0.0762 0.325967,0.2159 0.139699,0.135466 0.220133,0.3175 0.08043,0.1778 0.08043,0.380999 0,0.105834 -0.02117,0.2286 -0.02117,0.118533 -0.07197,0.270933 -0.04657,0.148167 -0.127,0.3429 -0.08043,0.1905 -0.198967,0.4445 l -0.351366,0.736599 z m 0.1524,-1.452032 q 0.1651,0 0.296333,-0.07197 0.131233,-0.0762 0.2032,-0.198966 0.0762,-0.127 0.0762,-0.283633 0,-0.1651 -0.07197,-0.296333 -0.07197,-0.135467 -0.2032,-0.211667 -0.127,-0.0762 -0.292099,-0.0762 -0.1524,0 -0.270934,0.0762 -0.118533,0.07197 -0.190499,0.2032 -0.06773,0.127 -0.06773,0.300566 0,0.148167 0.06773,0.275167 0.07197,0.127 0.190499,0.207433 0.118534,0.0762 0.262467,0.0762 z"
         id="path12809" />
    </g>
    <g
       aria-label="22"
       id="text11655"
       style="font-size:4.23333px;line-height:1.25;font-family:Lexend;-inkscape-font-specification:'Lexend, Normal';font-variant-ligatures:none;stroke-width:0.264583">
      <path
         d="m 87.499542,52.111187 -0.1397,-0.347133 0.905933,-1.020233 q 0.07197,-0.0762 0.148166,-0.173566 0.08043,-0.1016 0.1524,-0.207433 0.07197,-0.105833 0.1143,-0.207433 0.04657,-0.105834 0.04657,-0.198967 0,-0.135466 -0.05503,-0.2286 -0.0508,-0.09737 -0.1524,-0.148166 -0.09737,-0.0508 -0.237067,-0.0508 -0.122766,0 -0.2413,0.07197 -0.118533,0.07197 -0.215899,0.2032 -0.09737,0.131233 -0.1524,0.3048 l -0.351367,-0.220133 q 0.07197,-0.245533 0.2159,-0.4191 0.148167,-0.1778 0.351367,-0.270933 0.207433,-0.09313 0.448733,-0.09313 0.249766,0 0.444499,0.105833 0.194733,0.1016 0.3048,0.287867 0.110066,0.182033 0.110066,0.423332 0,0.09737 -0.02117,0.198967 -0.02117,0.1016 -0.06773,0.211666 -0.04657,0.105834 -0.118534,0.224367 -0.07197,0.1143 -0.173566,0.2413 -0.09737,0.127 -0.224367,0.2667 l -0.673099,0.732366 -0.08467,-0.127 h 1.456266 v 0.440266 z"
         id="path12802" />
      <path
         d="m 89.822913,52.111187 -0.1397,-0.347133 0.905932,-1.020233 q 0.07197,-0.0762 0.148167,-0.173566 0.08043,-0.1016 0.1524,-0.207433 0.07197,-0.105833 0.1143,-0.207433 0.04657,-0.105834 0.04657,-0.198967 0,-0.135466 -0.05503,-0.2286 -0.0508,-0.09737 -0.1524,-0.148166 -0.09737,-0.0508 -0.237066,-0.0508 -0.122767,0 -0.2413,0.07197 -0.118533,0.07197 -0.2159,0.2032 -0.09737,0.131233 -0.1524,0.3048 l -0.351366,-0.220133 q 0.07197,-0.245533 0.2159,-0.4191 0.148166,-0.1778 0.351366,-0.270933 0.207433,-0.09313 0.448733,-0.09313 0.249766,0 0.4445,0.105833 0.194733,0.1016 0.304799,0.287867 0.110067,0.182033 0.110067,0.423332 0,0.09737 -0.02117,0.198967 -0.02117,0.1016 -0.06773,0.211666 -0.04657,0.105834 -0.118533,0.224367 -0.07197,0.1143 -0.173567,0.2413 -0.09737,0.127 -0.224366,0.2667 l -0.6731,0.732366 -0.08467,-0.127 h 1.456265 v 0.440266 z"
         id="path12804" />
    </g>
    <g
       aria-label="23"
       id="text12107"
       style="font-size:4.23333px;line-height:1.25;font-family:Lexend;-inkscape-font-specification:'Lexend, Normal';font-variant-ligatures:none;stroke-width:0.264583">
      <path
         d="m 106.54952,52.111187 -0.1397,-0.347133 0.90594,-1.020233 q 0.072,-0.0762 0.14816,-0.173566 0.0804,-0.1016 0.1524,-0.207433 0.072,-0.105833 0.1143,-0.207433 0.0466,-0.105834 0.0466,-0.198967 0,-0.135466 -0.055,-0.2286 -0.0508,-0.09737 -0.1524,-0.148166 -0.0974,-0.0508 -0.23706,-0.0508 -0.12277,0 -0.2413,0.07197 -0.11853,0.07197 -0.2159,0.2032 -0.0974,0.131233 -0.1524,0.3048 l -0.35137,-0.220133 q 0.072,-0.245533 0.2159,-0.4191 0.14817,-0.1778 0.35137,-0.270933 0.20743,-0.09313 0.44873,-0.09313 0.24977,0 0.4445,0.105833 0.19473,0.1016 0.3048,0.287867 0.11007,0.182033 0.11007,0.423332 0,0.09737 -0.0212,0.198967 -0.0212,0.1016 -0.0677,0.211666 -0.0466,0.105834 -0.11854,0.224367 -0.072,0.1143 -0.17356,0.2413 -0.0974,0.127 -0.22437,0.2667 l -0.6731,0.732366 -0.0847,-0.127 h 1.45626 v 0.440266 z"
         id="path12797" />
      <path
         d="m 109.54176,52.15352 q -0.31327,0 -0.5461,-0.143933 -0.2286,-0.143933 -0.4318,-0.4826 l 0.3556,-0.224366 q 0.10583,0.156633 0.20743,0.258233 0.10584,0.09737 0.2159,0.143933 0.11007,0.04657 0.23284,0.04657 0.14816,0 0.27516,-0.07197 0.127,-0.0762 0.2032,-0.207433 0.0762,-0.131233 0.0762,-0.296333 0,-0.1651 -0.0593,-0.2794 -0.0593,-0.118533 -0.17357,-0.1778 -0.1143,-0.0635 -0.27093,-0.0635 -0.072,0 -0.1524,0.01693 -0.0762,0.0127 -0.1651,0.04233 -0.0889,0.0254 -0.19474,0.06773 l -0.127,-0.334433 0.9144,-1.007532 0.0889,0.131233 h -1.26153 v -0.423333 h 1.69756 l 0.0847,0.169333 -0.96943,1.075266 -0.10583,-0.110066 q 0.0339,-0.01693 0.11006,-0.02963 0.0804,-0.01693 0.13124,-0.01693 0.18626,0 0.34713,0.07197 0.1651,0.06773 0.28363,0.194734 0.12277,0.122766 0.1905,0.292099 0.072,0.1651 0.072,0.3556 0,0.287867 -0.1397,0.516466 -0.13547,0.224367 -0.3683,0.3556 -0.23283,0.131233 -0.5207,0.131233 z"
         id="path12799" />
    </g>
    <path
       d="m 69.681907,74.621268 1.227666,-2.675465 0.0508,0.135467 h -1.498598 v -0.423333 h 1.833032 l 0.05927,0.292099 -1.1811,2.671232 z"
       id="path12921-0"
       style="font-size:4.23333px;line-height:1.25;font-family:Lexend;-inkscape-font-specification:'Lexend, Normal';font-variant-ligatures:none;stroke-width:0.264583" />
  </g>
</svg>
